<?xml version="1.0" encoding="UTF-8"?>
<svg id="Layer_2" data-name="Layer 2" xmlns="http://www.w3.org/2000/svg" viewBox="0 0 1153.56 197.12">
  <g id="Layer_1-2" data-name="Layer 1">
    <g>
      <g>
        <path d="M221.28,161.44V39.78h47.97c12.05,0,21.69,3.3,28.94,9.91,7.23,6.61,10.86,15.41,10.86,26.41s-3.63,19.82-10.86,26.42c-7.25,6.6-16.89,9.91-28.94,9.91h-27.46v49.01h-20.51ZM241.79,94.7h26.07c6.37,0,11.39-1.65,15.04-4.96,3.65-3.3,5.47-7.84,5.47-13.64s-1.82-10.34-5.47-13.64c-3.65-3.3-8.66-4.95-15.04-4.95h-26.07v37.19Z"/>
        <path d="M394.73,114.34c0,3.13-.12,5.74-.35,7.82h-66.91c.81,7.53,3.5,13.5,8.08,17.9,4.57,4.41,10.34,6.61,17.29,6.61,5.79,0,10.6-1.3,14.42-3.91,3.83-2.61,6.32-6.28,7.48-11.03l17.9,4.51c-2.32,8.46-7.02,15.01-14.08,19.64-7.07,4.63-15.76,6.95-26.07,6.95-13.32,0-23.93-4.44-31.81-13.29-7.88-8.87-11.82-19.5-11.82-31.9s3.8-23.17,11.38-31.98c7.59-8.8,18.05-13.21,31.37-13.21s23.98,4.11,31.63,12.34c7.64,8.23,11.47,18.08,11.47,29.55M328.34,107.73h46.23c-.58-6.14-2.86-11.06-6.87-14.77-4-3.7-9.36-5.56-16.08-5.56-6.02,0-11.07,1.77-15.12,5.3-4.06,3.54-6.78,8.55-8.17,15.03"/>
        <path d="M459.73,92.27c-3.13-1.39-6.9-2.09-11.29-2.09-6.95,0-12.72,3.21-17.3,9.65-4.57,6.43-6.86,16.08-6.86,28.94v32.67h-18.95v-87.59h18.95v16.68c2.31-5.21,6.02-9.53,11.12-12.95,5.09-3.41,10.31-5.13,15.63-5.13,3.83,0,7.07.53,9.74,1.56l-1.05,18.25Z"/>
        <path d="M502.13,162.83c-9.85,0-17.99-2.52-24.42-7.56-6.43-5.04-10.81-11.1-13.12-18.17l15.64-6.61c3.59,11.47,10.88,17.21,21.89,17.21,4.41,0,8.02-1.1,10.86-3.3,2.84-2.2,4.26-4.93,4.26-8.18,0-3.47-1.68-6.2-5.04-8.17-3.36-1.97-7.44-3.5-12.25-4.6-4.81-1.1-9.59-2.43-14.34-4-4.75-1.56-8.81-4.26-12.16-8.08-3.36-3.82-5.04-8.8-5.04-14.94,0-6.95,2.81-12.69,8.43-17.21,5.62-4.52,13.12-6.78,22.51-6.78,8.22,0,15.52,2,21.89,6,6.37,4,10.49,9.19,12.34,15.56l-15.64,6.6c-1.05-4.16-3.34-7.47-6.87-9.9-3.54-2.43-7.39-3.65-11.56-3.65s-7.47.78-9.9,2.35c-2.43,1.56-3.65,3.8-3.65,6.69s1.68,5.36,5.03,7.04c3.36,1.68,7.45,3.04,12.25,4.08,4.81,1.04,9.65,2.37,14.51,4,4.87,1.62,8.97,4.52,12.34,8.68,3.36,4.17,5.04,9.56,5.04,16.17,0,7.64-3.08,14.02-9.21,19.12-6.15,5.1-14.08,7.65-23.81,7.65"/>
        <path d="M541.75,193.07v-119.22h18.95v11.12c2.55-3.71,6.25-6.72,11.12-9.04,4.87-2.32,10.25-3.48,16.16-3.48,12.74,0,22.79,4.17,30.15,12.52,7.36,8.34,11.04,19.23,11.04,32.67s-3.8,24.33-11.38,32.67c-7.59,8.35-17.88,12.52-30.85,12.52-5.33,0-10.37-1.04-15.12-3.13-4.75-2.09-8.46-4.87-11.12-8.34v41.71h-18.95ZM566.44,138.41c4.63,5.27,10.77,7.91,18.42,7.91s13.78-2.64,18.42-7.91c4.63-5.28,6.95-12.19,6.95-20.77s-2.32-15.64-6.95-20.86c-4.64-5.22-10.78-7.82-18.42-7.82s-13.79,2.6-18.42,7.82c-4.64,5.21-6.95,12.16-6.95,20.86s2.31,15.49,6.95,20.77"/>
        <path d="M722.62,114.34c0,3.13-.12,5.74-.35,7.82h-66.91c.81,7.53,3.5,13.5,8.08,17.9,4.57,4.41,10.34,6.61,17.29,6.61,5.79,0,10.6-1.3,14.42-3.91,3.83-2.61,6.32-6.28,7.48-11.03l17.9,4.51c-2.32,8.46-7.02,15.01-14.08,19.64-7.07,4.63-15.76,6.95-26.07,6.95-13.32,0-23.93-4.44-31.81-13.29-7.88-8.87-11.82-19.5-11.82-31.9s3.8-23.17,11.38-31.98c7.59-8.8,18.05-13.21,31.37-13.21s23.98,4.11,31.63,12.34c7.64,8.23,11.47,18.08,11.47,29.55M656.24,107.73h46.23c-.58-6.14-2.86-11.06-6.87-14.77-4-3.7-9.36-5.56-16.08-5.56-6.02,0-11.07,1.77-15.12,5.3-4.06,3.54-6.78,8.55-8.17,15.03"/>
        <path d="M775.08,162.83c-13.1,0-23.7-4.17-31.8-12.52-8.11-8.35-12.17-19.23-12.17-32.67s4.06-24.33,12.17-32.67c8.1-8.35,18.7-12.52,31.8-12.52,10.78,0,19.75,2.67,26.94,8,7.19,5.33,11.53,12.51,13.04,21.55l-18.43,3.65c-.93-4.98-3.27-9.01-7.04-12.08-3.76-3.07-8.43-4.6-13.99-4.6-7.53,0-13.56,2.6-18.07,7.82-4.52,5.21-6.78,12.16-6.78,20.85s2.26,15.65,6.78,20.86c4.52,5.21,10.54,7.82,18.07,7.82,5.56,0,10.19-1.45,13.9-4.35,3.71-2.89,6.08-6.89,7.12-11.99l18.6,3.65c-1.85,9.15-6.34,16.31-13.47,21.46-7.12,5.16-16.02,7.74-26.67,7.74"/>
        <path d="M877.28,160.74c-4.17,1.39-8.81,2.09-13.9,2.09-8.69,0-15.68-2.43-20.95-7.31-5.28-4.87-7.91-12.1-7.91-21.73v-43.79h-15.3v-16.16h15.3v-26.07h18.94v26.07h22.6v16.16h-22.6v42.76c0,4.29,1.07,7.56,3.21,9.82,2.14,2.26,5.07,3.39,8.78,3.39,4.17,0,7.71-.7,10.61-2.09l1.22,16.86Z"/>
        <path d="M895.7,59.24c-3.48,0-6.37-1.18-8.69-3.56-2.32-2.37-3.47-5.25-3.47-8.61s1.15-6.4,3.47-8.78c2.32-2.38,5.21-3.57,8.69-3.57s6.58,1.19,8.95,3.57c2.37,2.38,3.56,5.3,3.56,8.78s-1.19,6.23-3.56,8.61c-2.37,2.37-5.36,3.56-8.95,3.56M886.32,73.84h18.95v87.59h-18.95v-87.59Z"/>
        <polygon points="946.79 161.43 914.81 73.84 934.11 73.84 955.83 139.36 977.56 73.84 997.02 73.84 965.04 161.43 946.79 161.43"/>
        <path d="M1079.52,114.34c0,3.13-.12,5.74-.35,7.82h-66.91c.81,7.53,3.5,13.5,8.08,17.9,4.57,4.41,10.34,6.61,17.29,6.61,5.79,0,10.6-1.3,14.42-3.91,3.83-2.61,6.32-6.28,7.48-11.03l17.9,4.51c-2.32,8.46-7.02,15.01-14.08,19.64-7.07,4.63-15.76,6.95-26.07,6.95-13.32,0-23.93-4.44-31.81-13.29-7.88-8.87-11.82-19.5-11.82-31.9s3.8-23.17,11.38-31.98c7.59-8.8,18.05-13.21,31.37-13.21s23.98,4.11,31.63,12.34c7.64,8.23,11.47,18.08,11.47,29.55M1013.13,107.73h46.23c-.58-6.14-2.86-11.06-6.87-14.77-4-3.7-9.36-5.56-16.08-5.56-6.02,0-11.07,1.77-15.12,5.3-4.06,3.54-6.78,8.55-8.17,15.03"/>
        <path d="M1120.53,162.83c-9.85,0-17.99-2.52-24.42-7.56-6.43-5.04-10.81-11.1-13.12-18.17l15.64-6.61c3.59,11.47,10.88,17.21,21.89,17.21,4.41,0,8.02-1.1,10.86-3.3,2.84-2.2,4.26-4.93,4.26-8.18,0-3.47-1.68-6.2-5.04-8.17-3.36-1.97-7.44-3.5-12.25-4.6-4.81-1.1-9.59-2.43-14.34-4-4.75-1.56-8.81-4.26-12.16-8.08-3.36-3.82-5.04-8.8-5.04-14.94,0-6.95,2.81-12.69,8.43-17.21,5.62-4.52,13.12-6.78,22.51-6.78,8.22,0,15.52,2,21.89,6,6.37,4,10.49,9.19,12.34,15.56l-15.64,6.6c-1.05-4.16-3.34-7.47-6.87-9.9-3.54-2.43-7.39-3.65-11.56-3.65s-7.47.78-9.9,2.35c-2.43,1.56-3.65,3.8-3.65,6.69s1.67,5.36,5.04,7.04c3.36,1.68,7.45,3.04,12.25,4.08,4.81,1.04,9.65,2.37,14.51,4,4.87,1.62,8.97,4.52,12.34,8.68,3.36,4.17,5.04,9.56,5.04,16.17,0,7.64-3.08,14.02-9.21,19.12-6.15,5.1-14.08,7.65-23.81,7.65"/>
      </g>
      <g>
        <path d="M18.52,178.56h-7.92c-5.85,0-10.59-4.74-10.59-10.59V29.37c0-5.85,4.74-10.59,10.59-10.59h7.92c5.85,0,10.59,4.74,10.59,10.59v138.6c0,5.85-4.74,10.59-10.59,10.59"/>
        <path d="M83.3,180.29l-24.33,4.95c-6.56,1.33-12.7-3.68-12.7-10.38V22.49c0-6.7,6.14-11.71,12.7-10.38l24.33,4.94c4.94,1,8.48,5.34,8.48,10.38v142.48c0,5.03-3.54,9.38-8.48,10.38"/>
        <path d="M169.08,180.99l-46.15,15.57c-6.86,2.32-13.98-2.79-13.98-10.04V10.6c0-7.26,7.14-12.37,14.01-10.02l46.15,15.75c4.29,1.46,7.17,5.49,7.17,10.02v144.61c0,4.55-2.9,8.59-7.21,10.04"/>
      </g>
    </g>
  </g>
</svg>