<?xml version="1.0" encoding="UTF-8"?>
<svg id="Layer_2" data-name="Layer 2" xmlns="http://www.w3.org/2000/svg" viewBox="0 0 388.94 434.92">
  <g id="Layer_1-2" data-name="Layer 1">
    <g>
      <path d="M40.85,393.97h-17.48c-12.91,0-23.37-10.46-23.37-23.37V64.79c0-12.91,10.46-23.37,23.37-23.37h17.48c12.9,0,23.37,10.46,23.37,23.37v305.8c0,12.91-10.47,23.37-23.37,23.37"/>
      <path d="M183.79,397.77l-53.68,10.91c-14.48,2.94-28.03-8.12-28.03-22.9V49.61c0-14.78,13.55-25.85,28.03-22.9l53.68,10.91c10.89,2.21,18.71,11.79,18.71,22.91v314.35c0,11.11-7.82,20.68-18.71,22.9"/>
      <path d="M373.04,399.33l-101.83,34.34c-15.14,5.11-30.84-6.16-30.84-22.15V23.38c0-16.02,15.75-27.29,30.92-22.11l101.83,34.75c9.46,3.23,15.82,12.12,15.82,22.11v319.05c0,10.03-6.4,18.94-15.9,22.15"/>
    </g>
  </g>
</svg>