<?xml version="1.0" encoding="UTF-8"?>
<svg id="Layer_1" data-name="Layer 1" xmlns="http://www.w3.org/2000/svg" viewBox="0 0 1300 900">
  <defs>
    <style>
      .cls-1 {
        fill: #fff;
      }
    </style>
  </defs>
  <rect x="-34.65" y="-33.05" width="1369.31" height="966.11"/>
  <g>
    <g>
      <path class="cls-1" d="M494.35,477.53v-53.27h21c5.28,0,9.5,1.45,12.67,4.34,3.17,2.89,4.76,6.75,4.76,11.56s-1.59,8.68-4.76,11.57c-3.17,2.89-7.39,4.34-12.67,4.34h-12.02v21.46h-8.98ZM503.33,448.31h11.41c2.79,0,4.99-.72,6.58-2.17,1.6-1.45,2.4-3.43,2.4-5.97s-.8-4.53-2.4-5.97c-1.6-1.45-3.79-2.17-6.58-2.17h-11.41v16.28Z"/>
      <path class="cls-1" d="M570.29,456.91c0,1.37-.05,2.51-.15,3.42h-29.3c.35,3.3,1.53,5.91,3.54,7.84,2,1.93,4.53,2.89,7.57,2.89,2.54,0,4.64-.57,6.32-1.71,1.68-1.14,2.77-2.75,3.27-4.83l7.84,1.98c-1.02,3.71-3.07,6.57-6.16,8.6-3.09,2.03-6.9,3.04-11.41,3.04-5.83,0-10.48-1.94-13.93-5.82-3.45-3.88-5.17-8.54-5.17-13.97s1.66-10.15,4.98-14c3.32-3.85,7.9-5.78,13.74-5.78s10.5,1.8,13.85,5.4c3.35,3.6,5.02,7.91,5.02,12.94M541.22,454.01h20.24c-.25-2.69-1.25-4.84-3.01-6.47-1.75-1.62-4.1-2.43-7.04-2.43-2.64,0-4.85.77-6.62,2.32-1.78,1.55-2.97,3.74-3.58,6.58"/>
      <path class="cls-1" d="M598.75,447.24c-1.37-.61-3.02-.91-4.94-.91-3.04,0-5.57,1.41-7.57,4.22-2,2.82-3,7.04-3,12.67v14.3h-8.3v-38.35h8.3v7.3c1.01-2.28,2.63-4.17,4.87-5.67,2.23-1.49,4.51-2.24,6.85-2.24,1.68,0,3.1.23,4.26.68l-.46,7.99Z"/>
      <path class="cls-1" d="M617.32,478.14c-4.31,0-7.88-1.1-10.69-3.31-2.82-2.21-4.73-4.86-5.74-7.96l6.85-2.89c1.57,5.02,4.77,7.53,9.59,7.53,1.93,0,3.51-.48,4.76-1.44,1.24-.96,1.86-2.16,1.86-3.58,0-1.52-.73-2.71-2.21-3.58-1.47-.86-3.26-1.53-5.36-2.02-2.11-.48-4.2-1.07-6.28-1.75-2.08-.68-3.86-1.86-5.33-3.54-1.47-1.67-2.21-3.85-2.21-6.54,0-3.04,1.23-5.56,3.69-7.53,2.46-1.98,5.75-2.97,9.86-2.97,3.6,0,6.8.88,9.59,2.63,2.79,1.75,4.59,4.02,5.4,6.81l-6.85,2.89c-.46-1.82-1.46-3.27-3.01-4.33-1.55-1.06-3.24-1.6-5.06-1.6s-3.27.34-4.33,1.03c-1.06.69-1.6,1.66-1.6,2.93s.73,2.35,2.2,3.08c1.47.73,3.26,1.33,5.37,1.79,2.11.46,4.22,1.04,6.35,1.75,2.13.71,3.93,1.98,5.4,3.8,1.47,1.83,2.21,4.19,2.21,7.08,0,3.35-1.35,6.14-4.03,8.37-2.69,2.23-6.17,3.35-10.43,3.35"/>
      <path class="cls-1" d="M634.66,491.38v-52.2h8.3v4.87c1.12-1.63,2.74-2.94,4.87-3.96,2.13-1.02,4.49-1.52,7.08-1.52,5.58,0,9.98,1.83,13.2,5.48,3.22,3.65,4.83,8.42,4.83,14.3s-1.66,10.65-4.98,14.3c-3.32,3.65-7.83,5.48-13.51,5.48-2.33,0-4.54-.46-6.62-1.37-2.08-.91-3.71-2.13-4.87-3.65v18.26h-8.3ZM645.47,467.45c2.03,2.31,4.72,3.46,8.07,3.46s6.04-1.15,8.07-3.46c2.03-2.31,3.04-5.34,3.04-9.09s-1.02-6.85-3.04-9.13c-2.03-2.29-4.72-3.43-8.07-3.43s-6.04,1.14-8.07,3.43c-2.03,2.28-3.04,5.33-3.04,9.13s1.01,6.78,3.04,9.09"/>
      <path class="cls-1" d="M713.86,456.91c0,1.37-.05,2.51-.15,3.42h-29.3c.35,3.3,1.53,5.91,3.54,7.84,2,1.93,4.53,2.89,7.57,2.89,2.54,0,4.64-.57,6.32-1.71,1.68-1.14,2.77-2.75,3.27-4.83l7.84,1.98c-1.02,3.71-3.07,6.57-6.16,8.6-3.09,2.03-6.9,3.04-11.41,3.04-5.83,0-10.48-1.94-13.93-5.82-3.45-3.88-5.17-8.54-5.17-13.97s1.66-10.15,4.98-14c3.32-3.85,7.9-5.78,13.74-5.78s10.5,1.8,13.85,5.4c3.35,3.6,5.02,7.91,5.02,12.94M684.79,454.01h20.24c-.25-2.69-1.25-4.84-3.01-6.47-1.75-1.62-4.1-2.43-7.04-2.43-2.64,0-4.85.77-6.62,2.32-1.78,1.55-2.97,3.74-3.58,6.58"/>
      <path class="cls-1" d="M736.83,478.14c-5.73,0-10.38-1.83-13.92-5.48-3.55-3.65-5.33-8.42-5.33-14.31s1.78-10.65,5.33-14.3c3.55-3.65,8.19-5.48,13.92-5.48,4.72,0,8.65,1.17,11.79,3.5,3.15,2.33,5.05,5.48,5.71,9.43l-8.07,1.6c-.41-2.18-1.43-3.94-3.08-5.29-1.65-1.34-3.69-2.02-6.12-2.02-3.3,0-5.94,1.14-7.91,3.43-1.98,2.28-2.97,5.33-2.97,9.13s.99,6.85,2.97,9.13c1.98,2.28,4.62,3.43,7.91,3.43,2.43,0,4.46-.63,6.09-1.9,1.62-1.27,2.66-3.02,3.12-5.25l8.14,1.6c-.81,4.01-2.78,7.14-5.9,9.4-3.12,2.26-7.01,3.39-11.68,3.39"/>
      <path class="cls-1" d="M781.57,477.23c-1.83.61-3.86.91-6.09.91-3.81,0-6.86-1.07-9.17-3.2-2.31-2.13-3.46-5.3-3.46-9.51v-19.18h-6.7v-7.08h6.7v-11.42h8.29v11.42h9.89v7.08h-9.89v18.72c0,1.88.47,3.31,1.41,4.3.94.99,2.22,1.48,3.84,1.48,1.83,0,3.38-.31,4.64-.91l.53,7.38Z"/>
      <path class="cls-1" d="M789.64,432.78c-1.52,0-2.79-.52-3.81-1.56-1.02-1.04-1.52-2.3-1.52-3.77s.51-2.8,1.52-3.84c1.02-1.04,2.28-1.56,3.81-1.56s2.88.52,3.92,1.56c1.04,1.04,1.56,2.32,1.56,3.84s-.52,2.73-1.56,3.77c-1.04,1.04-2.35,1.56-3.92,1.56M785.53,439.18h8.3v38.35h-8.3v-38.35Z"/>
      <polygon class="cls-1" points="812.01 477.53 798.01 439.18 806.46 439.18 815.97 467.86 825.48 439.18 834 439.18 820 477.53 812.01 477.53"/>
      <path class="cls-1" d="M870.12,456.91c0,1.37-.05,2.51-.15,3.42h-29.3c.35,3.3,1.53,5.91,3.54,7.84,2,1.93,4.53,2.89,7.57,2.89,2.54,0,4.64-.57,6.32-1.71,1.68-1.14,2.77-2.75,3.27-4.83l7.84,1.98c-1.02,3.71-3.07,6.57-6.16,8.6-3.09,2.03-6.9,3.04-11.41,3.04-5.83,0-10.48-1.94-13.93-5.82-3.45-3.88-5.17-8.54-5.17-13.97s1.66-10.15,4.98-14c3.32-3.85,7.9-5.78,13.74-5.78s10.5,1.8,13.85,5.4c3.35,3.6,5.02,7.91,5.02,12.94M841.05,454.01h20.24c-.25-2.69-1.25-4.84-3.01-6.47-1.75-1.62-4.1-2.43-7.04-2.43-2.64,0-4.85.77-6.62,2.32-1.78,1.55-2.97,3.74-3.58,6.58"/>
      <path class="cls-1" d="M888.08,478.14c-4.31,0-7.88-1.1-10.69-3.31-2.82-2.21-4.73-4.86-5.74-7.96l6.85-2.89c1.57,5.02,4.77,7.53,9.59,7.53,1.93,0,3.51-.48,4.76-1.44,1.24-.96,1.86-2.16,1.86-3.58,0-1.52-.73-2.71-2.21-3.58-1.47-.86-3.26-1.53-5.36-2.02-2.11-.48-4.2-1.07-6.28-1.75s-3.86-1.86-5.33-3.54c-1.47-1.67-2.21-3.85-2.21-6.54,0-3.04,1.23-5.56,3.69-7.53,2.46-1.98,5.75-2.97,9.86-2.97,3.6,0,6.8.88,9.59,2.63,2.79,1.75,4.59,4.02,5.4,6.81l-6.85,2.89c-.46-1.82-1.46-3.27-3.01-4.33-1.55-1.06-3.24-1.6-5.06-1.6s-3.27.34-4.33,1.03c-1.06.69-1.6,1.66-1.6,2.93s.73,2.35,2.2,3.08c1.47.73,3.26,1.33,5.37,1.79,2.11.46,4.22,1.04,6.35,1.75,2.13.71,3.93,1.98,5.4,3.8,1.47,1.83,2.21,4.19,2.21,7.08,0,3.35-1.35,6.14-4.03,8.37-2.69,2.23-6.17,3.35-10.43,3.35"/>
    </g>
    <g>
      <path class="cls-1" d="M405.57,485.03h-3.47c-2.56,0-4.64-2.08-4.64-4.64v-60.69c0-2.56,2.08-4.64,4.64-4.64h3.47c2.56,0,4.64,2.08,4.64,4.64v60.69c0,2.56-2.08,4.64-4.64,4.64"/>
      <path class="cls-1" d="M433.93,485.78l-10.65,2.17c-2.87.58-5.56-1.61-5.56-4.54v-66.71c0-2.93,2.69-5.13,5.56-4.54l10.65,2.16c2.16.44,3.71,2.34,3.71,4.55v62.38c0,2.2-1.55,4.1-3.71,4.54"/>
      <path class="cls-1" d="M471.49,486.09l-20.21,6.82c-3.01,1.01-6.12-1.22-6.12-4.39v-77.03c0-3.18,3.13-5.42,6.14-4.39l20.21,6.9c1.88.64,3.14,2.4,3.14,4.39v63.32c0,1.99-1.27,3.76-3.16,4.39"/>
    </g>
  </g>
</svg>